<mxfile host="app.diagrams.net" modified="2024-04-10T15:16:32.709Z" agent="Mozilla/5.0 (iPhone; CPU iPhone OS 17_2_1 like Mac OS X) AppleWebKit/605.1.15 (KHTML, like Gecko) Version/17.2 Mobile/15E148 Safari/604.1" version="24.2.3" etag="q2K5chKkLnuFNlS501Xd" type="github">
  <diagram name="Page-1" id="wjRQyc3Vqs5dzJ4l6PWB">
    <mxGraphModel>
      <root>
        <mxCell id="0" />
        <mxCell id="1" parent="0" />
      </root>
    </mxGraphModel>
  </diagram>
</mxfile>
